Genre:Animation | Adventure | Comedy
Language:English
IMDb:http://www.imdb.com/title/tt0361500/
Source:1080p.BluRay.x264-HALCYON
Subtitles:Romana/English


Format : MPEG-4
Format profile : Base Media
Codec ID : isom
File size : 2.07 GiB
Duration : 1h 29mn
Overall bit rate : 3 315 Kbps


Video
Format profile : High@L4.1
Format settings, CABAC : Yes
Format settings, ReFrames : 3 frames
Codec ID : avc1
Codec ID/Info : Advanced Video Coding
Duration : 1h 29mn
Bit rate mode : Variable
Bit rate : 2 969 Kbps
Maximum bit rate : 14.5 Mbps
Width : 1 280 pixels
Height : 720 pixels
Display aspect ratio : 16:9
Frame rate mode : Constant
Frame rate : 23.976 fps
Color space : YUV
Chroma subsampling : 4:2:0
Bit depth : 8 bits
Scan type : Progressive
Bits/(Pixel*Frame) : 0.134
Stream size : 1.79 GiB (86%)
Writing library : x264

Audio
ID : 2
Format : AAC
Format/Info : Advanced Audio Codec
Format version : Version 4
Format profile : LC
Format settings, SBR : No
Codec ID : 40
Duration : 1h 29mn
Bit rate mode : Variable
Bit rate : 447 Kbps
Maximum bit rate : 539 Kbps
Channel(s) : 6 channels
Channel positions : Front: L C R, Side: L R, LFE
Sampling rate : 48.0 KHz
Stream size : 286 MiB (13%)


Plot:
Delgo, an adventurous but naive teenager, must rally his group of friends to protect their world from conflict between the Lockni and Nohrin people.




================================== 
http://thepiratebay.org/user/hiest
==================================




Screenshots:
 
http://www.postimg.com/29000/28945.jpg
 
http://www.postimg.com/29000/28946.jpg
 
http://www.postimg.com/29000/28947.jpg
 
http://www.postimg.com/29000/28948.jpg
 
http://www.postimg.com/29000/28949.jpg